Coordinates
version=1
nRows=12
nColumns=33
inDegrees=yes

Units are S.I. units (second, meters, Newtons, ...)
Angles are in degrees.

endheader
time	ground_thorax_rot_x	ground_thorax_rot_y	ground_thorax_rot_z	ground_thorax_tx	ground_thorax_ty	ground_thorax_tz	clav_prot_r	clav_elev_r	scapula_abduction_r	scapula_elevation_r	scapula_upward_rot_r	scapula_winging_r	shoulder_elv_r	plane_of_elev_r	axial_rot_r	elbow_flexion_r	pro_sup_r	wrist_flex_r	wrist_dev_r	clav_prot_l	clav_elev_l	scapula_abduction_l	scapula_elevation_l	scapula_upward_rot_l	scapula_winging_l	shoulder_elv_l	plane_of_elev_l	axial_rot_l	elbow_flexion_l	pro_sup_l	wrist_flex_l	wrist_dev_l
      3.25000000	      3.00127561	      5.94538134	     -1.10151823	     -0.18335113	      1.00107153	      0.01569237	    -19.32178160	     -8.98593596	    -26.71281526	     -4.13415312	      5.99718088	      3.00849022	     63.32711321	    -53.19224840	     55.10405824	     77.12055103	     30.14507408	     38.28290545	    -23.08700007	     -6.41414994	     -3.30146030	      9.02155673	     -4.58219677	     -4.39231420	     -2.57586838	     46.78081824	    -48.48930463	    -22.63254541	     73.04860017	     26.47507116	    -18.82767794	    -24.99999983
      3.26000000	      2.99999525	      5.94190775	     -1.09645680	     -0.18334157	      1.00075199	      0.01559059	    -19.32264197	     -8.98746058	    -26.71418962	     -4.13471368	      5.99574240	      3.00755688	     63.32539654	    -53.19358594	     55.10528811	     77.12085266	     30.14489048	     38.28301936	    -23.08718499	     -6.41378832	     -3.30458908	      9.02040130	     -4.57940197	     -4.39271044	     -2.57650147	     46.77856277	    -48.48593799	    -22.63255267	     73.04862634	     26.47519829	    -18.82762108	    -24.99999983
      3.27000000	      2.97209255	      5.91287022	     -1.04576969	     -0.18351585	      1.00065682	      0.01548017	    -19.33264684	     -8.99354027	    -26.73300487	     -4.13839240	      5.98821193	      3.01042194	     63.30813490	    -53.20745034	     55.11322082	     77.13456846	     30.14222522	     38.28634524	    -23.09176903	     -6.41395714	     -3.33699687	      9.01676385	     -4.55447818	     -4.40475004	     -2.58010683	     46.74537064	    -48.45438704	    -22.63116835	     73.05190177	     26.47660994	    -18.82914929	    -24.99999983
      3.28000000	      2.96451590	      5.91851635	     -0.96958896	     -0.18370608	      1.00062954	      0.01538910	    -19.34797444	     -9.01877837	    -26.75791703	     -4.15984839	      5.98052315	      3.02241665	     63.27411736	    -53.21589537	     55.11754947	     77.16575303	     30.13651161	     38.29357925	    -23.10324777	     -6.42111720	     -3.36407010	      9.03156740	     -4.53843961	     -4.42701367	     -2.59192126	     46.70232789	    -48.44272997	    -22.60972335	     73.03494980	     26.47887335	    -18.83568798	    -24.99999983
      3.29000000	      2.96269472	      5.91692390	     -0.96384587	     -0.18365774	      1.00033631	      0.01533018	    -19.34941621	     -9.02019410	    -26.76014830	     -4.16132164	      5.97987742	      3.02202893	     63.27277359	    -53.21715941	     55.11723063	     77.16671844	     30.13615889	     38.29395376	    -23.10415471	     -6.42147788	     -3.36640965	      9.03207262	     -4.53560690	     -4.42789495	     -2.59298089	     46.70025730	    -48.44074571	    -22.60767546	     73.03301825	     26.47899012	    -18.83628770	    -24.99999983
      3.30000000	      2.91921168	      5.91297625	     -0.78904004	     -0.18347514	      1.00052754	      0.01546351	    -19.49785197	     -9.06415144	    -26.99520078	     -4.21329846	      5.98693446	      3.03611769	     63.22613572	    -53.37114941	     55.04543701	     77.26009632	     30.10154323	     38.34432281	    -23.22099284	     -6.49503255	     -3.42366212	      9.17183152	     -4.50303267	     -4.48066434	     -2.64478100	     46.61399947	    -48.47068140	    -22.29604185	     72.78795591	     26.48800603	    -18.93303421	    -24.99999983
      3.31000000	      2.91632457	      5.91410420	     -0.78246453	     -0.18340622	      1.00024047	      0.01541189	    -19.49795581	     -9.06616716	    -26.99411107	     -4.21576701	      5.98791766	      3.03657982	     63.22593722	    -53.36889021	     55.04450845	     77.26100863	     30.10139289	     38.34478670	    -23.22185380	     -6.49488766	     -3.42634440	      9.17101428	     -4.49970505	     -4.48107801	     -2.64506924	     46.61239882	    -48.46706580	    -22.29507793	     72.78789550	     26.48818014	    -18.93388233	    -24.99999983
      3.32000000	      2.86671576	      5.93405567	     -0.71538946	     -0.18373394	      1.00019221	      0.01513009	    -19.50160949	     -9.08236590	    -26.98825539	     -4.23698040	      6.00350994	      3.03823502	     63.22538795	    -53.34623774	     55.02932202	     77.28742021	     30.09960458	     38.35333924	    -23.23368597	     -6.49853869	     -3.46029807	      9.17093945	     -4.47122983	     -4.48782718	     -2.64845645	     46.58877352	    -48.43052331	    -22.28121101	     72.78994146	     26.48984132	    -18.94538104	    -24.99999983
      3.33000000	      3.01375644	      6.09836690	     -1.33562014	     -0.18376574	      1.00068613	      0.01510421	    -19.75282849	     -9.64939356	    -27.28640193	     -4.77962372	      6.00921830	      3.26686772	     63.30524644	    -53.31158264	     54.75640227	     77.31458015	     30.35610267	     39.07186680	    -24.21016271	     -6.23896651	     -3.82685251	      8.79268332	     -4.32441420	     -4.94944776	     -2.73736991	     46.07679207	    -47.64495977	    -20.82490495	     72.29223187	     26.77430453	    -20.36120565	    -24.99999983
      3.34000000	      2.90951223	      6.09110874	     -1.16244311	     -0.18381676	      1.00049086	      0.01522489	    -19.80409461	     -9.63381686	    -27.38916931	     -4.75793475	      5.98153963	      3.26335411	     63.24337462	    -53.37113013	     54.74736894	     77.48952852	     30.39190890	     39.16113583	    -24.29279035	     -6.20925401	     -3.79556851	      8.75055298	     -4.35927183	     -4.96039204	     -2.72560517	     46.11667512	    -47.76517406	    -20.78929331	     72.24396105	     26.82462287	    -20.49519671	    -24.99999983
      3.35000000	      2.86910785	      6.12356353	     -1.10857341	     -0.18397758	      1.00030692	      0.01500180	    -19.80395066	     -9.64053446	    -27.37797591	     -4.77097069	      6.00056297	      3.26300015	     63.25268885	    -53.34713058	     54.73039113	     77.51150500	     30.39363899	     39.16878493	    -24.30108525	     -6.21021653	     -3.81085632	      8.74742727	     -4.34396674	     -4.95732315	     -2.72371057	     46.11395289	    -47.74858549	    -20.78440320	     72.25286065	     26.82722255	    -20.50765555	    -24.99999983
      3.36000000	      2.78041585	      6.63995011	     -1.05412879	     -0.18421704	      0.99957448	      0.01506403	    -20.05321049	     -9.69400929	    -27.92156580	     -4.74132426	      5.73540173	      3.32914931	     63.41018533	    -53.52970554	     54.37492711	     77.83620761	     31.29666088	     40.10361575	    -24.99999983	     -5.67982964	     -3.80436138	      7.90967256	     -4.48935881	     -5.26495321	     -2.60782628	     46.26572913	    -47.65634823	    -20.55399757	     72.51361852	     27.31609611	    -22.40367168	    -24.99999983
